<svg xmlns="http://www.w3.org/2000/svg" xmlns:xlink="http://www.w3.org/1999/xlink" width="500" height="500" viewBox="0 0 500 500"><defs><clipPath id="a"><rect width="500" height="500" transform="translate(703 329)" fill="#fff" stroke="#707070" stroke-width="1"/></clipPath></defs><g transform="translate(-703 -329)" clip-path="url(#a)"><g transform="translate(677.138 303.138)"><rect width="86.207" height="155.172" transform="translate(232.759 25.862)" fill="#e6e6e6"/><rect width="86.207" height="34.483" transform="translate(232.759 146.552)" fill="#b3b3b3"/><path d="M215.517,318.966c-47.612,0-86.207,11.578-86.207,25.862V500c0,14.284,38.595,25.862,86.207,25.862S301.724,514.284,301.724,500V344.828C301.724,330.543,263.129,318.966,215.517,318.966Z" fill="#f5cf68"/><ellipse cx="86.207" cy="25.862" rx="86.207" ry="25.862" transform="translate(129.31 318.966)" fill="#f5cf68"/><path d="M129.31,500c0,14.284,38.595,25.862,86.207,25.862S301.724,514.284,301.724,500V448.276c0,14.284-38.595,25.862-86.207,25.862S129.31,462.56,129.31,448.276Z" fill="#fdb62f"/><path d="M301.724,344.828c0,14.284-38.595,25.862-86.207,25.862s-86.207-11.578-86.207-25.862v51.724c0,14.285,38.595,25.862,86.207,25.862s86.207-11.578,86.207-25.862Z" fill="#fdb62f"/><path d="M413.793,448.276a60.061,60.061,0,0,0-1.724-13.957l17.155-9.905-17.241-29.862-17.155,9.905a60.112,60.112,0,0,0-24.138-13.991V370.69H336.207v19.776a60.112,60.112,0,0,0-24.138,13.991l-17.164-9.905-17.241,29.862,17.155,9.905a58.491,58.491,0,0,0,0,27.914l-17.155,9.905L294.905,502l17.164-9.905a60.112,60.112,0,0,0,24.138,13.991v19.776H370.69V506.086a60.112,60.112,0,0,0,24.138-13.991L411.991,502l17.241-29.862-17.164-9.905A60.062,60.062,0,0,0,413.793,448.276Zm-60.345,25.862a25.862,25.862,0,1,1,25.862-25.862A25.862,25.862,0,0,1,353.448,474.138Z" fill="#6cbbc7"/><path d="M275.862,172.414a8.534,8.534,0,0,1-8.621-8.621,9.009,9.009,0,0,1,2.5-6.121,14.649,14.649,0,0,1,1.284-1.035,6.741,6.741,0,0,1,1.56-.776,5.483,5.483,0,0,1,1.552-.517,8.776,8.776,0,0,1,7.845,2.328,9.052,9.052,0,0,1,2.5,6.121,8.534,8.534,0,0,1-8.621,8.621Z" fill="#e6e6e6"/><path d="M456.9,206.9H439.655v34.483H284.483V206.9H267.241v34.483H112.069V206.9H94.828v51.724H267.241V293.1h17.241V258.621H456.9Z" fill="#b3b3b3"/><rect width="155.172" height="120.69" transform="translate(25.862 25.862)" fill="#e6e6e6"/><rect width="155.172" height="34.483" transform="translate(25.862 112.069)" fill="#b3b3b3"/><rect width="51.724" height="34.483" transform="translate(77.586 146.552)" fill="gray"/><rect width="103.448" height="17.241" transform="translate(51.724 172.414)" fill="#b3b3b3"/><rect width="155.172" height="155.172" transform="translate(370.69 25.862)" fill="#e6e6e6"/><rect width="155.172" height="51.724" transform="translate(370.69 25.862)" fill="#b3b3b3"/><path d="M396.552,60.345a8.621,8.621,0,0,1-3.276-.69,9.956,9.956,0,0,1-2.845-1.81,8.534,8.534,0,0,1-1.81-9.4,8.9,8.9,0,0,1,1.81-2.845,8.621,8.621,0,0,1,7.759-2.328,5.251,5.251,0,0,1,1.647.517,4.9,4.9,0,0,1,1.465.776,8.619,8.619,0,0,1,1.379,1.034,9.051,9.051,0,0,1,2.491,6.121,8.569,8.569,0,0,1-2.5,6.121,10.078,10.078,0,0,1-2.845,1.81A8.621,8.621,0,0,1,396.552,60.345Z" fill="#ff6536"/><path d="M422.414,60.345a8.543,8.543,0,0,1-6.121-2.5A10.078,10.078,0,0,1,414.483,55a7.224,7.224,0,0,1-.69-3.276,8.62,8.62,0,0,1,.69-3.276,8.9,8.9,0,0,1,1.81-2.845,9.026,9.026,0,0,1,12.241,0,9.956,9.956,0,0,1,1.81,2.845,8.121,8.121,0,0,1,0,6.552,10.076,10.076,0,0,1-1.81,2.845,10.077,10.077,0,0,1-2.845,1.81A8.621,8.621,0,0,1,422.414,60.345Z" fill="#fdb62f"/><path d="M448.276,60.345a8.621,8.621,0,0,1-3.276-.69,9.957,9.957,0,0,1-2.845-1.81A10.078,10.078,0,0,1,440.345,55a8.129,8.129,0,0,1,0-6.552,8.043,8.043,0,0,1,1.81-2.845,14.659,14.659,0,0,1,1.284-1.034,6.741,6.741,0,0,1,1.56-.776,5.483,5.483,0,0,1,1.552-.517,8.181,8.181,0,0,1,5,.517A10.078,10.078,0,0,1,454.4,45.6a8.912,8.912,0,0,1,1.81,9.4,10.078,10.078,0,0,1-1.81,2.845A8.9,8.9,0,0,1,448.276,60.345Z" fill="#02998a"/></g></g></svg>