<svg xmlns="http://www.w3.org/2000/svg" xmlns:xlink="http://www.w3.org/1999/xlink" width="800" height="500" viewBox="0 0 800 500">
  <defs>
    <clipPath id="clip-path">
      <rect id="Rectángulo_1" data-name="Rectángulo 1" width="800" height="500" transform="translate(679 309)" fill="#fff"/>
    </clipPath>
  </defs>
  <g id="Enmascarar_grupo_1" data-name="Enmascarar grupo 1" transform="translate(-679 -309)" clip-path="url(#clip-path)">
    <g id="SPM1" transform="translate(774.996 267.596)">
      <path id="Trazado_1" data-name="Trazado 1" d="M40.557,41.85c-.647.647-.517,192.175.065,192.564.323.194,4.981-3.946,10.349-9.185,5.3-5.239,13.454-12.872,17.982-16.947,4.593-4.075,8.732-7.891,9.314-8.409.517-.517,3.881-3.428,7.439-6.468,3.558-2.975,6.792-5.757,7.18-6.145,1.229-1.1,16.624-13.713,19.146-15.653C133.9,154.853,148.449,144.18,159.122,137c3.364-2.264,7.051-4.722,8.085-5.433,2.587-1.876,16.3-10.738,18.888-12.29,1.164-.647,6.4-3.816,11.643-6.986,5.3-3.234,10.285-6.21,11.19-6.727.906-.453,2.523-1.423,3.558-2.07,1.1-.712,2.846-1.682,3.881-2.2,1.1-.582,5.175-2.781,9.056-4.916C231.891,92.821,258.67,79.5,263.78,77.3c1.164-.517,3.1-1.358,4.334-1.876,1.294-.582,3.234-1.423,4.4-1.941,1.1-.453,3.687-1.552,5.628-2.264,1.94-.776,4.14-1.682,4.851-1.941,9.573-4.075,16.494-4.2,16.494-.453,0,2.264-4.528,6.986-11,11.32a72.875,72.875,0,0,1-6.145,3.946,27.567,27.567,0,0,0-3.04,1.876c-1.552.97-4.981,3.234-7.633,4.916-2.652,1.746-6.08,4.01-7.5,5.11-1.488,1.1-3.364,2.458-4.14,2.975-2.975,2.005-17.788,13.066-18.111,13.519a52.072,52.072,0,0,1-4.528,3.687c-4.593,3.493-4.2,3.17-14.877,12.29-12.743,10.932-20.7,18.305-34.282,31.954-12.031,11.966-16.3,16.559-29.5,31.7a454.755,454.755,0,0,0-33.7,44.955c-1.229,2.005-6.016,9.573-6.662,10.673a208.768,208.768,0,0,0-10.932,20.375c-6.533,13.325-6.6,13.519-9.185,20.375-1.164,3.04-2.458,6.4-2.975,7.568a11.052,11.052,0,0,0-.841,2.781,37.77,37.77,0,0,1-1.617,5.369,179.819,179.819,0,0,0-6.274,25.679c-1.682,9.185-2.005,29.755-.582,37.517.906,5.239,3.1,13.842,3.946,15.459.259.582,1.423,3.04,2.652,5.563,8.15,17.012,22.639,28.267,43.209,33.765,13.066,3.428,33.571,3.687,50.518.517,2.652-.517,6.21-1.1,7.956-1.358,1.682-.194,3.234-.647,3.428-.97a3.4,3.4,0,0,1,2.264-.582,14.313,14.313,0,0,0,4.269-.97,12.579,12.579,0,0,1,3.493-.97,10.636,10.636,0,0,0,3.3-.906c1.164-.518,5.563-2.005,9.767-3.3a59.514,59.514,0,0,0,7.956-2.975,1.682,1.682,0,0,1,1.358-.582,11.912,11.912,0,0,0,3.3-1.035c1.358-.517,3.364-1.423,4.528-1.876,7.827-3.428,22.122-10.349,28.914-14.1,3.234-1.746,7.439-4.075,9.379-5.11,1.941-1.1,4.463-2.587,5.5-3.364,1.1-.776,2.393-1.682,2.911-1.94,6.792-3.234,34.735-23.351,49.483-35.641,20.181-16.882,43.338-39.91,58.862-58.6a403.232,403.232,0,0,0,36.805-51.682c2.393-4.075,4.593-7.891,4.916-8.409,2.07-3.493,10.8-21.216,12.678-25.809,5.433-13,6.145-14.942,8.021-21.087,3.364-10.932,3.687-12.1,4.787-17.465.582-2.846,1.358-6.468,1.746-8.085a92.193,92.193,0,0,0,1.229-9.379c.323-3.558.776-8.15,1.035-10.155.517-4.2-.582-15.912-2.135-23.157-4.463-21.022-15.2-35.835-32.6-44.826A72.394,72.394,0,0,0,419.409,64.1c-2.458-.776-5.433-1.746-6.662-2.135-2.846-.906-8.28-1.682-17.335-2.523-9.056-.776-27.038.453-36.417,2.587-1.941.453-5.433,1.229-7.762,1.746-5.3,1.229-11.19,2.717-14.813,3.881s-10.479,1.811-12.613,1.294c-3.493-.841-1.035-6.08,4.787-9.961a54.552,54.552,0,0,1,11.514-5.951c.97-.323,3.364-1.164,5.3-1.941s4.269-1.617,5.175-1.941,3.234-1.164,5.175-1.941a119.245,119.245,0,0,1,12.484-4.14c.97-.194,1.746-.712,1.746-1.035,0-.712-328.723-.906-329.434-.194Zm491.726,174a25.079,25.079,0,0,0-2.2,3.558,7.676,7.676,0,0,1-1.682,2.458,6.957,6.957,0,0,0-1.94,2.393c-2.587,4.334-12.937,17.723-21.54,28.008-8.862,10.608-9.767,11.708-18.435,21.41-7.18,8.021-40.169,40.945-47.607,47.543-3.17,2.781-6.921,6.145-8.409,7.439-3.428,3.04-20.634,16.947-25.421,20.5-9.444,7.051-22.51,16.3-25.227,17.917-.582.323-4.463,2.846-8.538,5.563-6.6,4.4-30.466,19.017-32.989,20.181-.517.259-2.135,1.164-3.558,1.941-2.587,1.488-6.21,3.493-13.584,7.568-9.509,5.239-37.775,18.952-44.308,21.475-1.229.453-1.423.712-.647,1.035.517.259,58.733.323,129.367.129l128.4-.323.194-104.982c.065-57.7-.129-104.917-.388-104.917-.323,0-.97.517-1.488,1.1ZM74.063,463.006c-4.4.388-14.683,2.135-15.718,2.652-.582.323-2.781,1.294-4.851,2.264a23.193,23.193,0,0,0-11.255,10.673l-1.811,3.622v39.457l1.876,3.881C47.866,537,59.509,541.273,85.383,541.4c19.987.065,30.66-2.781,37.84-9.961a19.937,19.937,0,0,0,4.787-7.245c1.358-3.816,1.423-4.528,1.229-23.286l-.194-19.34-1.811-3.234c-4.722-8.409-12.613-12.872-25.679-14.489-5.757-.712-23.157-1.229-27.491-.841Zm21.346,16.3c3.816.97,7.633,3.752,8.668,6.339.517,1.294.712,6.533.582,17.335-.194,15.007-.259,15.524-1.682,17.4-2.264,2.846-4.593,3.946-10.673,5.175-5.886,1.164-10.414,1.1-17.141-.323-5.692-1.229-9.444-4.528-10.414-9.12-.906-4.075-.906-23.868-.065-27.62,1.229-5.11,4.01-7.633,10.673-9.444,3.946-1.1,15.395-.97,20.052.259ZM144.892,465.4c-.712.841-.906,69.729-.194,72.64l.323,1.423,12.1-.129,12.031-.194.388-11.643c.194-6.4.388-11.708.453-11.837.065-.065,7.568-.129,16.624-.129s16.559.065,16.624.129c.065.129.259,5.433.453,11.837l.388,11.643,12.031.194,12.1.129.388-1.423c.194-.841.388-17.4.388-36.87,0-25.809-.194-35.511-.712-35.835-.841-.517-20.828-.906-23.027-.453-1.488.323-1.488.388-1.617,15.33l-.194,14.942H169.795l-.194-15.071c-.129-11.32-.323-15.007-.97-15.071-.388-.065-5.822-.129-11.9-.259-8.28-.129-11.32.065-11.837.647Zm133.572-.259c-9.573.517-13.584,1.358-19.211,4.01a23.594,23.594,0,0,0-11.966,11.9l-1.746,3.752-.259,25.679c-.129,14.166-.065,26.456.129,27.361l.388,1.617h11.061c8.215,0,11.061-.194,11.255-.841.129-.388.388-5.757.582-11.772.129-6.08.323-11.061.323-11.19.065-.065,8.215-.129,18.111-.129,13.778,0,18.241.194,18.629.776.259.453.647,5.757.841,11.837l.323,11,11.19.194c10.285.129,11.126.065,11.126-.97.065-.647.065-12.807.065-27.038-.065-25.1-.065-26-1.488-29.755-2.846-7.7-10.608-13.26-21.669-15.459C300.262,464.947,289.072,464.559,278.463,465.141Zm17.982,15.848c6.6,1.682,9.444,4.981,9.509,11.061v3.428h-36.87v-3.428a11.012,11.012,0,0,1,3.946-8.8C276.976,480.212,288.878,478.983,296.446,480.988Zm48.9-15.459c-.388.453-.582,10.608-.453,26.844.194,24.515.323,26.262,1.552,29.819a37.805,37.805,0,0,0,3.17,6.274c2.005,2.911,8.926,7.762,11,7.762a3.1,3.1,0,0,1,2.005.647c.323.323,3.752,1.035,7.633,1.617,9.379,1.294,59.25,1.423,59.25.129.065-1.488.065-72.575.065-73.222-.065-.388-4.01-.582-10.867-.517-6.016.129-11.384.194-11.966.194-1.1,0-1.164,1.746-1.164,27.038,0,20.181-.194,27.232-.776,27.814-.517.517-4.14.776-12.161.776-11.966,0-17.788-.906-20.311-3.1-2.975-2.652-3.17-4.2-3.04-28.267,0-12.484-.194-23.027-.517-23.48-.712-1.164-22.51-1.488-23.416-.323Zm124.257-.388c-5.563.517-11.578,1.682-12.549,2.393a7.023,7.023,0,0,1-2.393.97c-2.458.647-8.085,6.145-9.573,9.509-1.1,2.329-1.358,4.269-1.358,9.832,0,9.509,1.746,13.907,7.115,17.529,5.627,3.752,9.767,4.334,34.282,4.851,19.923.453,20.44.517,22.51,1.94,1.682,1.229,2.07,1.941,2.07,3.946,0,5.628-1.682,5.886-35.641,5.886-21.8,0-28.4.194-28.914.776-.647.906-.517,14.877.194,16.042.647,1.035,64.943.841,69.858-.259a22.086,22.086,0,0,0,15.848-12.419c2.005-4.075,2.07-4.4,1.811-11.126-.194-6.339-.453-7.309-2.458-11.449-1.876-3.752-2.911-4.981-5.822-6.921a26.781,26.781,0,0,0-6.145-3.04c-1.423-.323-3.752-.906-5.175-1.294-1.488-.388-10.479-.712-21.152-.712-16.106,0-18.888-.129-20.893-1.1-3.622-1.746-3.946-5.175-.776-7.568,1.941-1.423-.906-1.358,56.922-1.682.97,0,1.1-.841,1.1-8.085s-.129-8.085-1.1-8.085c-.647,0-12.937-.065-27.361-.194-14.424-.065-28.073.065-30.4.259Zm80.4.453c-9.056,3.687-11.514,15.265-4.657,21.734,7.309,6.792,18.37,3.881,21.669-5.757,1.164-3.493,1.164-3.622-.065-7.115a13.958,13.958,0,0,0-8.15-8.8c-3.558-1.423-5.369-1.423-8.8-.065Zm8.409,1.811c4.4,2.2,7.568,6.727,7.568,10.673,0,3.881-3.364,8.409-7.7,10.349-3.687,1.617-4.916,1.552-8.8-.582a10.926,10.926,0,0,1-4.981-4.981c-2.135-3.881-2.2-5.11-.517-8.862,2.717-6.145,9.314-9.185,14.424-6.6Z" fill="#d22222"/>
      <path id="Trazado_2" data-name="Trazado 2" d="M549.23,472.062c-.776,1.423-.97,10.285-.323,12.031.647,1.682,1.552.517,1.552-1.941,0-1.423.388-2.393,1.035-2.652,1.358-.517,4.075.841,4.593,2.2.517,1.488,2.135,3.428,2.911,3.428.906,0,.582-1.229-1.035-3.752l-1.552-2.458,1.552-1.358c3.234-2.911.97-5.951-4.916-6.533-2.652-.259-3.234-.065-3.816,1.035Zm7.18,1.746c1.1,1.488,1.1,1.552-.518,2.846-2.07,1.617-3.04,1.682-4.4.323-1.229-1.164-1.294-1.811-.388-3.558C552.076,471.674,555.051,471.868,556.409,473.808Z" fill="#d22222"/>
    </g>
  </g>
</svg>
