<svg xmlns="http://www.w3.org/2000/svg" xmlns:xlink="http://www.w3.org/1999/xlink" width="500" height="500" viewBox="0 0 500 500"><defs><clipPath id="a"><rect width="500" height="500" transform="translate(668 342)" fill="#fff" stroke="#707070" stroke-width="1"/></clipPath></defs><g transform="translate(-668 -342)" clip-path="url(#a)"><g transform="translate(668.146 341.999)"><path d="M377.053,287.651c0-90.878-73.475-164.547-164.112-164.547S48.828,196.774,48.828,287.651,122.3,452.2,212.94,452.2,377.053,378.529,377.053,287.651Zm0,0" fill="#89c8fd"/><path d="M212.94,123.1a164.819,164.819,0,0,0-24.78,1.865c78.877,11.978,139.328,80.25,139.328,162.682s-60.452,150.7-139.328,162.682a164.819,164.819,0,0,0,24.78,1.865c90.637,0,164.112-73.669,164.112-164.547S303.578,123.1,212.94,123.1Zm0,0" fill="#60b6ff"/><path d="M191.608,187.054c-25.28,15.842-44.243,41.187-30.022,69.706s45.822,17.426,75.054,13.466,7.111,86.342,24.49,108.521,66.36-22.179,61.623-50.7c-7.019-42.221-9.48-57.034,47.4-87.132l.153-.057c-19.173-64.922-77.21-113.095-147.091-117.424l-.008.248s-6.321,47.527-31.6,63.37Zm0,0" fill="#baeb6c"/><path d="M315.762,159.412c.011.008.023.019.034.027A.21.21,0,0,1,315.762,159.412Zm0,0" fill="#baeb6c"/><path d="M335.831,178.608a.008.008,0,0,0,.008.008Zm0,0" fill="#baeb6c"/><path d="M103.916,362.11c-7.591-11.578,13.432-38.811,18.169-59.406s-23.7-19.013-32.391-26.142-20.542-38.021-29.232-45.151l-1.389-1.095a165,165,0,0,0,56.641,189.9l.05-3.448s6.321-26.932-11.848-54.657Zm0,0" fill="#baeb6c"/><path d="M322.754,328.049c-.034-.206-.069-.408-.1-.614a163.564,163.564,0,0,1-13.634,36.118c9.335-11.017,15.572-24.448,13.737-35.5Zm0,0" fill="#baeb6c"/><path d="M223.217,123.436l-.008.248s-.526,3.967-1.884,9.983a164.616,164.616,0,0,1,105.48,138.87c7.252-9.918,20.515-19.539,43.35-31.62l.153-.057c-19.173-64.922-77.21-113.095-147.091-117.424Zm0,0" fill="#96d629"/><path d="M212.719,500a214.707,214.707,0,0,1-35.03-2.888A212.2,212.2,0,0,1,2.888,253.17a7.433,7.433,0,0,1,14.668,2.422,197.34,197.34,0,0,0,162.56,226.852C287.487,500.183,389.248,427.257,406.983,319.9A197.341,197.341,0,0,0,244.427,93.048a7.433,7.433,0,1,1,2.419-14.668A212.234,212.234,0,0,1,212.72,500Zm0,0" fill="#09a66d"/><path d="M167.583,179.577C88.222,166.111,38.989,66.189,38.989,66.189S118.43-11.9,197.791,1.561,326.385,114.945,326.385,114.945s-79.441,78.095-158.8,64.632Zm0,0" fill="#49cb5c"/><path d="M197.792,1.56a123.164,123.164,0,0,0-44.914,1.129c76.046,17.075,122.955,112.255,122.955,112.255s-52,51.113-113.892,63.5c1.865.42,3.742.8,5.642,1.129,79.361,13.462,158.8-64.632,158.8-64.632S277.152,15.022,197.791,1.56Zm0,0" fill="#07b128"/><path d="M321.9,106.647l-77.61-13.092L171.795.21a136.5,136.5,0,0,0-17.166,2.14L222.622,89.9,164.1,80.025,114.166,15.419c-4.684,2.113-9.239,4.356-13.63,6.683l41.95,54.276L45.719,60.051c-4.345,3.8-6.729,6.138-6.729,6.138s1.595,3.231,4.654,8.591l96.241,16.235L86.51,132.286c3.437,3.54,7.042,7.038,10.811,10.433l62.515-48.336,61.955,10.452-84.259,65.189a123.755,123.755,0,0,0,16.209,6.256l88-68.077,77.66,13.1c4.5-3.925,6.985-6.359,6.985-6.359s-1.537-3.113-4.486-8.3Zm0,0" fill="#09a66d"/><path d="M380.363,82.584c21.29-50.377,95.055-67.337,95.055-67.337s39.249,64.716,17.96,115.093-95.055,67.337-95.055,67.337-39.249-64.716-17.96-115.093Zm0,0" fill="#49cb5c"/><path d="M475.418,15.247a197.182,197.182,0,0,0-36.633,13.359c10.189,21.584,26.341,65.388,10.979,101.734-11.135,26.352-36.633,43.56-58.418,53.978,3.933,8.331,6.981,13.359,6.981,13.359s73.765-16.96,95.055-67.337S475.418,15.248,475.418,15.248Zm0,0" fill="#07b128"/><path d="M499.409,88.791l-56.725,23.8,37.243-89.039c-2.666-5.264-4.509-8.3-4.509-8.3s-3.51.809-9.22,2.594l-38.49,92.018L403.84,51.132a102.358,102.358,0,0,0-11.318,11.642l27.046,66.547L394.162,190.06c2.48,4.841,4.162,7.618,4.162,7.618s3.815-.877,9.949-2.823l26.234-62.714,64.88-27.214a106.479,106.479,0,0,0,.023-16.136Zm0,0" fill="#09a66d"/></g></g></svg>