<svg xmlns="http://www.w3.org/2000/svg" xmlns:xlink="http://www.w3.org/1999/xlink" width="500" height="500" viewBox="0 0 500 500"><defs><clipPath id="a"><rect width="500" height="500" transform="translate(703 329)" fill="#fff" stroke="#707070" stroke-width="1"/></clipPath></defs><g transform="translate(-703 -329)" clip-path="url(#a)"><g transform="translate(703 329)"><path d="M60.565,30.532V55.241A24.736,24.736,0,0,0,85.274,79.949h29.3L160.311,130.2a32.955,32.955,0,0,1,32.035-25.543,32.555,32.555,0,0,1,10.924,2.006L183.821,79.949h16.761a24.736,24.736,0,0,0,24.709-24.709V30.532H60.565Z" fill="#d3d4d9"/><path d="M472.379,30.532H27.62A8.237,8.237,0,0,1,21.8,28.119L5.325,11.646,16.971,0,31.03,14.059H468.968L483.028,0l11.647,11.647L478.2,28.12A8.24,8.24,0,0,1,472.379,30.532Z" fill="#85878c"/><path d="M142.928,79.949A32.945,32.945,0,1,1,175.873,47,32.982,32.982,0,0,1,142.928,79.949Z" fill="#5971c9"/><path d="M225.291,187.021h-8.236V159.163a32.5,32.5,0,0,1-49.418,0v27.858H159.4a8.237,8.237,0,0,0-8.236,8.236V211.73a8.237,8.237,0,0,0,2.413,5.823l16.473,16.473L181.7,222.379,167.637,208.32v-4.826h49.418v4.826L203,222.379l11.647,11.647,16.473-16.473a8.237,8.237,0,0,0,2.413-5.823V195.258A8.238,8.238,0,0,0,225.291,187.021Z" fill="#d3d4d9"/><path d="M75.654,462.486a8.231,8.231,0,0,0-6.853-3.668H60.565v-65.89H44.093v65.89H35.857A8.231,8.231,0,0,0,29,462.486L12.531,487.195A8.236,8.236,0,0,0,19.385,500h65.89a8.236,8.236,0,0,0,6.854-12.805Z" fill="#85878c"/><path d="M487.468,487.195l-16.473-24.709a8.231,8.231,0,0,0-6.853-3.668h-8.236v-65.89H439.434v65.89H431.2a8.231,8.231,0,0,0-6.853,3.668l-16.473,24.709A8.236,8.236,0,0,0,414.726,500h65.89a8.235,8.235,0,0,0,6.852-12.805Z" fill="#85878c"/><path d="M52.329,318.8a41.181,41.181,0,0,0,0,82.363H447.67a41.181,41.181,0,0,0,0-82.363Z" fill="#d3d4d9"/><rect width="65.89" height="65.89" transform="translate(44.093 252.911)" fill="#f0ce37"/><rect width="65.89" height="65.89" transform="translate(274.708 252.911)" fill="#f0ce37"/><rect width="65.89" height="65.89" transform="translate(159.401 252.911)" fill="#f0ce37"/><circle cx="32.945" cy="32.945" r="32.945" transform="translate(44.093 327.037)" fill="#afb1b8"/><circle cx="32.945" cy="32.945" r="32.945" transform="translate(159.401 327.037)" fill="#afb1b8"/><circle cx="32.945" cy="32.945" r="32.945" transform="translate(390.016 327.037)" fill="#afb1b8"/><circle cx="32.945" cy="32.945" r="32.945" transform="translate(274.708 327.037)" fill="#afb1b8"/><path d="M77.038,401.164a41.181,41.181,0,1,1,41.181-41.181A41.229,41.229,0,0,1,77.038,401.164Zm0-65.89a24.709,24.709,0,1,0,24.709,24.709A24.736,24.736,0,0,0,77.038,335.274Z" fill="#85878c"/><path d="M192.346,401.164a41.181,41.181,0,1,1,41.181-41.181A41.229,41.229,0,0,1,192.346,401.164Zm0-65.89a24.709,24.709,0,1,0,24.709,24.709A24.736,24.736,0,0,0,192.346,335.274Z" fill="#85878c"/><path d="M422.961,401.164a41.181,41.181,0,1,1,41.181-41.181A41.229,41.229,0,0,1,422.961,401.164Zm0-65.89a24.709,24.709,0,1,0,24.709,24.709A24.736,24.736,0,0,0,422.961,335.274Z" fill="#85878c"/><path d="M192.346,170.548A32.945,32.945,0,1,1,225.291,137.6,32.982,32.982,0,0,1,192.346,170.548Z" fill="#5971c9"/><rect width="16.473" height="32.945" transform="translate(68.802 252.911)" fill="#cfac30"/><rect width="16.473" height="32.945" transform="translate(299.417 252.911)" fill="#cfac30"/><rect width="16.473" height="32.945" transform="translate(184.109 252.911)" fill="#cfac30"/><path d="M307.653,401.164a41.181,41.181,0,1,1,41.181-41.181A41.229,41.229,0,0,1,307.653,401.164Zm0-65.89a24.709,24.709,0,1,0,24.709,24.709A24.736,24.736,0,0,0,307.653,335.274Z" fill="#85878c"/><rect width="16.473" height="16.473" transform="translate(68.802 351.746)" fill="#85878c"/><rect width="16.473" height="16.473" transform="translate(184.109 351.746)" fill="#85878c"/><rect width="16.473" height="16.473" transform="translate(299.417 351.746)" fill="#85878c"/><rect width="16.473" height="16.473" transform="translate(414.725 351.746)" fill="#85878c"/><rect width="65.89" height="8.236" transform="translate(44.093 310.565)" fill="#cfac30"/><rect width="65.89" height="8.236" transform="translate(159.401 310.565)" fill="#cfac30"/><rect width="65.89" height="8.236" transform="translate(274.708 310.565)" fill="#cfac30"/><circle cx="16.473" cy="16.473" r="16.473" transform="translate(175.873 121.131)" fill="#6884eb"/><circle cx="16.473" cy="16.473" r="16.473" transform="translate(126.456 30.532)" fill="#6884eb"/></g></g></svg>