<svg xmlns="http://www.w3.org/2000/svg" xmlns:xlink="http://www.w3.org/1999/xlink" width="500" height="500" viewBox="0 0 500 500"><defs><clipPath id="a"><rect width="500" height="500" transform="translate(703 329)" fill="#fff" stroke="#707070" stroke-width="1"/></clipPath><linearGradient id="b" x1="0.14" y1="0.14" x2="0.909" y2="0.909" gradientUnits="objectBoundingBox"><stop offset="0" stop-color="#b5dbff"/><stop offset="1" stop-color="#48b2e3"/></linearGradient><linearGradient id="c" x1="0.14" y1="0.551" x2="0.909" y2="1.32" xlink:href="#b"/><linearGradient id="d" x1="1.107" y1="1.542" x2="-0.327" y2="-0.602" gradientUnits="objectBoundingBox"><stop offset="0" stop-color="#07485e" stop-opacity="0"/><stop offset="0.333" stop-color="#063f52" stop-opacity="0.333"/><stop offset="0.936" stop-color="#032632" stop-opacity="0.937"/><stop offset="1" stop-color="#03232e"/></linearGradient><linearGradient id="e" x1="0.14" y1="0.14" x2="0.909" y2="0.909" gradientUnits="objectBoundingBox"><stop offset="0" stop-color="#76e2f8"/><stop offset="1" stop-color="#48b2e3"/></linearGradient><linearGradient id="f" x1="1.391" y1="0.14" x2="2.16" y2="0.909" xlink:href="#e"/></defs><g transform="translate(-703 -329)" clip-path="url(#a)"><g transform="translate(703 329.001)"><path d="M478.284,137.977h-8.706a171.923,171.923,0,0,0-9.561-21.231l6.7-6.7a21.712,21.712,0,0,0,0-30.706L420.654,33.281a21.712,21.712,0,0,0-30.706,0l-8.638,8.638a171.573,171.573,0,0,0-19.291-7.7V21.713A21.713,21.713,0,0,0,340.306,0H275.164a21.713,21.713,0,0,0-21.713,21.713V34.223a172.022,172.022,0,0,0-19.291,7.7l-8.638-8.638a21.712,21.712,0,0,0-30.706,0L148.756,79.343a21.712,21.712,0,0,0,0,30.706l6.7,6.7a171.923,171.923,0,0,0-9.561,21.231h-8.706a21.713,21.713,0,0,0-21.713,21.713v65.141a21.713,21.713,0,0,0,21.713,21.713H142a171.561,171.561,0,0,0,9.529,25.16l-2.77,2.77a21.712,21.712,0,0,0,0,30.706l46.061,46.061a21.712,21.712,0,0,0,30.706,0l.829-.828a171.648,171.648,0,0,0,27.1,11.625v.772a21.713,21.713,0,0,0,21.713,21.713h65.142a21.713,21.713,0,0,0,21.713-21.713v-.772a171.907,171.907,0,0,0,27.1-11.625l.829.828a21.712,21.712,0,0,0,30.706,0l46.061-46.061a21.712,21.712,0,0,0,0-30.706l-2.77-2.77a171.672,171.672,0,0,0,9.529-25.16h4.81A21.713,21.713,0,0,0,500,224.831V159.69a21.718,21.718,0,0,0-21.716-21.713ZM307.736,267.534a69.4,69.4,0,1,1,69.4-69.4A69.4,69.4,0,0,1,307.736,267.534Z" fill="url(#b)"/><path d="M307.736,324.5a126.369,126.369,0,1,0-126.369-126.37A126.36,126.36,0,0,0,307.736,324.5Zm0-195.773a69.4,69.4,0,1,1-69.4,69.4A69.4,69.4,0,0,1,307.736,128.725Z" fill="url(#c)"/><path d="M275.165,384.521h65.141a21.605,21.605,0,0,0,10.115-2.5L217.763,250.345a14.334,14.334,0,0,0-20.929,0l-2.784,2.784L173.2,232.347c-2.793-4.064-7.47-4.77-12.772-4.77,0,0-44.826-.26-44.7.569a21.712,21.712,0,0,0,21.455,18.4H142a171.518,171.518,0,0,0,9.529,25.16l-2.77,2.77a21.712,21.712,0,0,0,0,30.706l46.061,46.061a21.712,21.712,0,0,0,30.706,0l.829-.828a171.645,171.645,0,0,0,27.1,11.625v.772a21.711,21.711,0,0,0,21.711,21.715Z" fill="url(#d)"/><path d="M258.887,324.072h-6.213a122.6,122.6,0,0,0-6.822-15.15l4.779-4.779a15.492,15.492,0,0,0,0-21.911l-32.868-32.868a15.492,15.492,0,0,0-21.911,0l-6.164,6.164a122.774,122.774,0,0,0-13.766-5.492v-8.927a15.493,15.493,0,0,0-15.493-15.493H113.948a15.493,15.493,0,0,0-15.493,15.493v8.927a122.4,122.4,0,0,0-13.766,5.492l-6.164-6.164a15.492,15.492,0,0,0-21.911,0L23.747,282.232a15.492,15.492,0,0,0,0,21.911l4.779,4.779a122.81,122.81,0,0,0-6.822,15.15H15.491A15.492,15.492,0,0,0,0,339.565v46.482A15.493,15.493,0,0,0,15.493,401.54h3.431a122.406,122.406,0,0,0,6.8,17.953l-1.976,1.976a15.492,15.492,0,0,0,0,21.911l32.868,32.868a15.492,15.492,0,0,0,21.911,0l.591-.591a122.588,122.588,0,0,0,19.338,8.3v.551A15.493,15.493,0,0,0,113.949,500h46.482A15.493,15.493,0,0,0,175.924,484.5v-.551a122.622,122.622,0,0,0,19.338-8.3l.591.591a15.492,15.492,0,0,0,21.911,0l32.868-32.868a15.492,15.492,0,0,0,0-21.911l-1.976-1.976a122.555,122.555,0,0,0,6.8-17.953h3.432a15.493,15.493,0,0,0,15.493-15.493V339.565a15.494,15.494,0,0,0-15.494-15.493Zm-121.7,92.446a49.524,49.524,0,1,1,49.524-49.524A49.521,49.521,0,0,1,137.19,416.518Z" fill="url(#e)"/><path d="M200.951,303.232a90.172,90.172,0,1,0,0,127.523A90.165,90.165,0,0,0,200.951,303.232Zm-98.781,98.781a49.524,49.524,0,1,1,70.039,0A49.521,49.521,0,0,1,102.171,402.013Z" fill="url(#f)"/></g></g></svg>