<svg xmlns="http://www.w3.org/2000/svg" viewBox="0 0 944.83 1274.68"><defs><style>.cls-1{fill:#0fc9f2;}</style></defs><title>bombillo 4</title><g id="Capa_2" data-name="Capa 2"><g id="Capa_2-2" data-name="Capa 2"><path class="cls-1" d="M525,1255.66v-29.09a20,20,0,0,0-20.05-20H449.42a20,20,0,0,0-20.05,20v29.1a19.08,19.08,0,0,0,19,19H506A19.08,19.08,0,0,0,525,1255.66Z"/><path class="cls-1" d="M583,1061H371.31a22,22,0,0,1-22-22v-20.52a22,22,0,0,1,22-22H583a22,22,0,0,1,22,22v20.52A22,22,0,0,1,583,1061Z"/><path class="cls-1" d="M583,1165.31H371.31a22,22,0,0,1-22-22v-20.52a22,22,0,0,1,22-22H583a22,22,0,0,1,22,22v20.52A22,22,0,0,1,583,1165.31Z"/><path class="cls-1" d="M478.88,319.1C332.15,318.18,211.24,438.31,211.24,585A265.77,265.77,0,0,0,337.4,811.32a76.9,76.9,0,0,1,34.74,50.16,78.45,78.45,0,0,1,1.59,15.59v56.16a22,22,0,0,0,21.95,21.95h63.87V774.06l-.72.73-95.26-95.26a14.92,14.92,0,1,1,21.09-21.09l74.89,74.89V658.7a23.53,23.53,0,1,1,47.06,0V727l63.07-63.07A14.92,14.92,0,1,1,590.77,685l-84.16,84.16v186h52.06a22,22,0,0,0,22-21.95V878.34a79.71,79.71,0,0,1,2.86-21.08,80.6,80.6,0,0,1,34.91-46.84A265.74,265.74,0,0,0,743.11,585C743.11,438.73,625,320,478.88,319.1ZM341.47,636.56a14.75,14.75,0,1,1,0-20.86A14.78,14.78,0,0,1,341.47,636.56ZM483.34,586.1a23.28,23.28,0,1,1,23.27-23.27A23.32,23.32,0,0,1,483.34,586.1Zm150.4,56a14.75,14.75,0,1,1,0-20.87A14.79,14.79,0,0,1,633.74,642.06Z"/><path class="cls-1" d="M806.38,504.55a27.66,27.66,0,0,1-27.66-27.67c0-171.35-139.41-310.76-310.77-310.76S157.19,305.53,157.19,476.88a27.67,27.67,0,1,1-55.33,0C101.86,275,266.09,110.79,468,110.79S834,275,834,476.88A27.66,27.66,0,0,1,806.38,504.55Z"/><path class="cls-1" d="M917.17,500.08a27.66,27.66,0,0,1-27.66-27.66c0-230-187.11-417.09-417.09-417.09S55.33,242.43,55.33,472.42a27.67,27.67,0,0,1-55.33,0c0-126.19,49.14-244.82,138.37-334S346.23,0,472.42,0,717.24,49.14,806.47,138.37,944.83,346.23,944.83,472.42A27.66,27.66,0,0,1,917.17,500.08Z"/></g></g></svg>